<svg preserveAspectRatio="none" overflow="visible" style="display: block;" width="71.0112" height="19.1747" viewBox="0 0 71.0112 19.1747" fill="none" xmlns="http://www.w3.org/2000/svg">
<g id="Group 107">
<path id="Ellipse 197 (Stroke)" d="M40.2286 13.0038C40.2286 9.73499 42.8785 7.08508 46.1473 7.08508C46.8374 7.08518 47.3971 7.6447 47.3971 8.33489C47.3971 9.02507 46.8374 9.58459 46.1473 9.58469C44.259 9.58469 42.7282 11.1155 42.7282 13.0038C42.7282 15.4938 42.7176 16.7666 42.7174 17.8316C42.7172 18.5217 42.1577 19.0809 41.4675 19.0808C40.8205 19.0807 40.2882 18.5892 40.2242 17.9591L40.2177 17.831C40.218 16.5659 40.2286 15.6707 40.2286 13.0038Z" fill="#EFEDEA"/>
<path id="Ellipse 179 (Stroke)" d="M26.9143 13.3557C26.9143 13.413 26.9181 13.4694 26.9256 13.5247C27.0661 16.6687 29.6596 19.1747 32.8383 19.1747C36.107 19.1747 38.7569 16.5248 38.757 13.256C38.757 9.98726 36.107 7.33736 32.8383 7.33733C32.6293 7.33733 32.4224 7.34803 32.2183 7.36934C32.0755 7.38424 31.9338 7.40464 31.7941 7.42955C31.1147 7.55075 30.6619 8.19954 30.7829 8.87898C30.9041 9.55852 31.5534 10.0112 32.2329 9.89011C32.3134 9.87576 32.395 9.86401 32.4776 9.85539C32.5957 9.84306 32.7161 9.83695 32.8383 9.83695C34.7265 9.83697 36.2574 11.3678 36.2574 13.256C36.2573 15.1443 34.7265 16.6751 32.8383 16.6751C30.95 16.6751 29.4192 15.1443 29.4192 13.256C29.4192 13.2175 29.4175 13.1795 29.4141 13.1419C29.4156 12.2446 29.426 10.7253 29.4367 9.15384C29.4482 7.45422 29.46 5.695 29.46 4.61949C29.46 3.68112 29.2068 2.79792 28.764 2.03905C28.4694 1.53414 28.0878 1.14452 27.7523 0.840778C27.475 0.589699 27.0671 0.33127 26.8275 0.184412C26.239 -0.176189 25.4696 0.00818619 25.109 0.596675C24.7483 1.1852 24.9333 1.9545 25.5218 2.31516C25.7754 2.47059 25.9927 2.6192 26.0745 2.69325C26.3282 2.9229 26.4967 3.11346 26.6051 3.29917C26.8307 3.68601 26.9604 4.13575 26.9604 4.61949C26.9604 5.68442 26.9487 7.43325 26.937 9.13649C26.9255 10.8349 26.9143 12.4899 26.9143 13.3557Z" fill="#EFEDEA"/>
<path id="Ellipse 198 (Stroke)" d="M14.3185 14.8833L13.2895 16.3322L13.2635 16.3691L13.2353 16.4033C13.0644 16.6108 12.8821 16.809 12.6901 16.9967C12.5019 17.1808 12.304 17.3551 12.0972 17.5186C11.8223 17.7359 11.5312 17.9344 11.2266 18.112C10.9986 18.245 10.763 18.3667 10.5203 18.4755C9.58704 18.8937 8.55306 19.1253 7.46848 19.1253C3.34375 19.1253 1.00805e-05 15.7816 1.00805e-05 11.6568C6.84846e-05 7.53215 3.34378 4.18844 7.46848 4.18838C8.16043 4.18838 8.83247 4.28273 9.47121 4.46015C9.77074 4.54336 10.0631 4.64511 10.3462 4.76338C10.6316 4.88265 10.908 5.01907 11.174 5.1713C11.4062 5.3042 11.6305 5.44912 11.8461 5.60526C12.0944 5.78514 12.3312 5.9801 12.555 6.1884C13.0603 6.65856 13.0891 7.44929 12.6191 7.95462C12.1489 8.45994 11.3576 8.48829 10.8523 8.01808C10.703 7.8792 10.5452 7.74949 10.3798 7.62969C10.2362 7.52563 10.0868 7.42897 9.93229 7.34056C9.7554 7.23932 9.57168 7.14848 9.38225 7.06934C9.1945 6.99091 9.0009 6.92378 8.80237 6.86863C8.37935 6.75112 7.93224 6.68799 7.46848 6.68799C4.72428 6.68805 2.49968 8.91265 2.49963 11.6568C2.49963 14.4011 4.72425 16.6256 7.46848 16.6257C8.19381 16.6257 8.87981 16.4714 9.49779 16.1945C9.65892 16.1222 9.81591 16.0415 9.96755 15.9531C10.1701 15.8349 10.3636 15.7025 10.5469 15.5576C10.6847 15.4486 10.8168 15.3327 10.9423 15.2099C11.0629 15.092 11.1765 14.9668 11.2846 14.8372L14.5072 10.3003C15.5229 8.50221 17.4518 7.28832 19.6641 7.28832C22.9329 7.28834 25.5828 9.93825 25.5828 13.207C25.5828 16.4757 22.9329 19.1257 19.6641 19.1257C18.2497 19.1257 16.9481 18.6276 15.9299 17.7989C15.3947 17.3631 15.3141 16.5761 15.7498 16.0408C16.1856 15.5056 16.9726 15.425 17.5079 15.8607C18.0965 16.3398 18.8453 16.6261 19.6641 16.6261C21.5524 16.626 23.0832 15.0952 23.0832 13.207C23.0832 11.3187 21.5524 9.78796 19.6641 9.78793C18.6729 9.78793 17.7802 10.2097 17.1557 10.8837C16.0686 12.0568 15.2441 13.5798 14.3185 14.8833Z" fill="#EFEDEA"/>
<path id="Ellipse 181 (Stroke)" fill-rule="evenodd" clip-rule="evenodd" d="M59.1952 11.3867L59.1932 11.3896Z" fill="#EFEDEA"/>
<path id="Ellipse 181 (Stroke)_2" fill-rule="evenodd" clip-rule="evenodd" d="M58.8587 16.1521C59.0915 15.8561 59.3116 15.5662 59.5274 15.2735C60.353 17.5478 62.5331 19.1725 65.0925 19.1725C68.3613 19.1724 71.0112 16.5225 71.0112 13.2538C71.0112 9.98501 68.3613 7.33511 65.0925 7.33508C63.017 7.33508 61.191 8.40343 60.1344 10.0202L60.1313 10.018C59.7818 10.5257 59.4737 10.9774 59.1932 11.3887L59.1928 11.3893L59.1915 11.3912L59.191 11.3919C58.2944 12.7063 57.6794 13.608 56.894 14.6066C56.3477 15.3012 55.8533 15.7881 55.2455 16.119C54.6465 16.445 53.8378 16.6728 52.5907 16.6728C50.7024 16.6728 49.1717 15.142 49.1716 13.2538C49.1716 11.3655 50.7024 9.83469 52.5907 9.83469C52.7229 9.83469 52.8528 9.842 52.9802 9.85639C53.1542 9.87605 53.324 9.90889 53.4885 9.95349C53.6201 9.98919 53.7487 10.0325 53.8736 10.0831C53.9443 10.1118 54.0138 10.1428 54.0822 10.1761C54.3547 10.3345 54.444 10.5028 54.4738 10.6139C54.5069 10.7374 54.5054 10.9377 54.3511 11.2038C54.2141 11.4401 54.0012 11.7024 53.7132 11.8627C53.4645 12.0011 53.0576 12.1239 52.3667 11.9293C51.7023 11.7422 51.0115 12.1292 50.8244 12.7936C50.6373 13.4578 51.0242 14.1479 51.6884 14.3351C52.9815 14.6995 54.0732 14.5232 54.9288 14.047C55.7451 13.5926 56.2428 12.9247 56.5134 12.4582C56.9519 11.7019 57.1173 10.8209 56.8878 9.96571C56.6683 9.14815 56.1209 8.47861 55.3636 8.0303L55.3664 8.02507C55.1872 7.92979 55.0023 7.84374 54.8126 7.76686C54.5954 7.67887 54.3718 7.60334 54.1427 7.54121C53.8565 7.46361 53.5621 7.40652 53.2612 7.3725C53.0407 7.34759 52.8169 7.33508 52.5907 7.33507C49.3219 7.33507 46.672 9.98499 46.672 13.2538C46.672 16.5225 49.3219 19.1724 52.5907 19.1724C54.1558 19.1724 55.3964 18.8826 56.4405 18.3143C57.4757 17.7508 58.2184 16.9661 58.8587 16.1521ZM68.5116 13.2538C68.5116 11.3655 66.9808 9.83473 65.0925 9.8347C63.2043 9.8347 61.6735 11.3655 61.6735 13.2538C61.6735 15.142 63.2043 16.6728 65.0925 16.6728C66.9808 16.6728 68.5116 15.142 68.5116 13.2538Z" fill="#EFEDEA"/>
</g>
</svg>
